<?xml version="1.0" encoding="UTF-8" standalone="no"?>
<svg
   version="1.2"
   viewBox="0 0 500 500"
   width="500"
   height="500"
   id="svg8"
   sodipodi:docname="favicon2.svg"
   inkscape:version="1.1.1 (3bf5ae0d25, 2021-09-20)"
   xmlns:inkscape="http://www.inkscape.org/namespaces/inkscape"
   xmlns:sodipodi="http://sodipodi.sourceforge.net/DTD/sodipodi-0.dtd"
   xmlns="http://www.w3.org/2000/svg"
   xmlns:svg="http://www.w3.org/2000/svg">
  <defs
     id="defs12" />
  <sodipodi:namedview
     id="namedview10"
     pagecolor="#ffffff"
     bordercolor="#666666"
     borderopacity="1.0"
     inkscape:pageshadow="2"
     inkscape:pageopacity="0.0"
     inkscape:pagecheckerboard="0"
     showgrid="false"
     inkscape:zoom="0.685"
     inkscape:cx="198.54015"
     inkscape:cy="389.78102"
     inkscape:window-width="1920"
     inkscape:window-height="1051"
     inkscape:window-x="1599"
     inkscape:window-y="0"
     inkscape:window-maximized="1"
     inkscape:current-layer="svg8" />
  <style
     id="style2" />
  <path
     style="fill:#00ffff;stroke-width:0.558599"
     d="M 86.618176,428.72504 C 82.149802,422.16842 61.279808,385.9467 30.535832,331.38918 3.5813988,283.55649 3.8339908,284.01592 3.8339908,282.82211 c 0,-2.64872 45.7933532,-87.91208 70.5197192,-131.30179 10.461606,-18.35796 10.456596,-18.3523 13.576326,-15.34788 2.5077,2.41501 5.0282,6.47622 19.209464,30.95167 6.2186,10.7327 11.8559,20.32245 12.52736,21.31059 l 1.22081,1.79659 3.40117,-5.94911 c 1.87064,-3.27201 8.61654,-15.50115 14.99089,-27.17587 15.35947,-28.13107 24.71933,-44.56348 26.64812,-46.78408 l 1.57564,-1.81402 1.63468,1.88474 c 1.80673,2.08311 12.50807,19.91648 24.34426,40.56877 9.67426,16.88005 19.89297,34.06416 21.70629,36.50195 l 1.39009,1.86881 1.34271,-2.14811 c 0.7385,-1.18146 6.44431,-11.44878 12.67958,-22.81627 11.20794,-20.43312 17.1094,-30.7985 18.75701,-32.945 1.76396,-2.29807 2.63475,-1.01668 22.0088,32.3864 7.12782,12.28918 13.29054,22.68293 13.69493,23.09722 0.61323,0.62825 1.01052,0.35013 2.39388,-1.67579 2.30034,-3.36885 9.22177,-15.56293 18.02461,-31.75551 18.42326,-33.88907 25.13779,-45.24651 26.7498,-45.24651 1.53514,0 5.66316,6.74576 31.61924,51.6704 12.56371,21.74519 15.80395,27.09205 16.41804,27.09205 0.2179,0 5.01071,-8.35804 10.65069,-18.57342 13.80126,-24.99746 19.50284,-34.78983 21.66713,-37.21297 l 1.81191,-2.0286 1.3952,1.67579 c 2.24818,2.70032 12.80097,20.66034 34.52132,58.75256 36.7605,64.469 49.5562,87.16114 49.5562,87.88394 0,1.10254 -54.89583,102.54683 -69.97589,129.31137 -8.13614,14.44024 -11.84092,20.38886 -12.69813,20.38886 -0.9551,0 -7.03356,-9.75854 -18.44102,-29.60574 -24.01773,-41.78709 -28.07661,-48.56199 -29.34077,-48.97432 -0.6482,-0.21142 -0.0398,-1.26278 -13.79548,23.83737 -11.93022,21.76912 -16.35665,29.43843 -18.53812,32.11944 -2.42583,2.98134 -2.08634,3.46057 -21.56641,-30.44364 -6.97263,-12.13557 -13.15163,-22.88002 -13.73111,-23.87658 -0.57948,-0.99655 -1.19763,-1.8135 -1.37368,-1.81544 -0.46508,-0.005 -4.72422,7.57788 -21.38159,38.068 -20.85179,38.1677 -23.65134,42.92531 -25.25874,42.92531 -1.36467,0 -7.30301,-9.87412 -30.40292,-50.5532 -11.00685,-19.38313 -17.67306,-30.44643 -18.34174,-30.44011 -0.459,0.004 -0.10389,-0.61726 -13.08226,22.89902 -16.20137,29.35621 -19.89984,35.20819 -21.79263,34.48186 -1.49208,-0.57257 -7.01575,-9.29744 -18.86854,-29.80372 -12.08499,-20.90797 -15.11265,-25.89233 -15.73249,-25.90001 -0.56367,-0.007 -2.98065,4.25797 -19.46584,34.34895 -20.784364,37.9384 -25.879724,46.64301 -27.303124,46.64301 -0.2988,0 -1.27134,-1.06832 -2.1612,-2.37405 z m 12.58746,-24.718 c 11.506994,-21.1144 19.632594,-36.41027 26.201374,-49.32217 l 6.33616,-12.45465 -1.7429,-3.46542 c -4.43971,-8.82756 -26.01089,-46.87481 -35.446204,-62.52005 -2.66302,-4.41569 -3.37243,-5.25358 -3.80048,-4.48872 -0.71212,1.27248 -0.56749,89.35409 0.19192,116.88954 0.52345,18.9795 1.00322,28.31466 1.42922,27.80911 0.0734,-0.0872 3.14735,-5.68859 6.83091,-12.44764 z m -13.83163,-34.92321 c -0.59884,-51.12141 -1.475259,-93.44462 -2.016848,-97.39592 -0.194683,-1.42038 -0.557085,-2.58251 -0.805332,-2.58251 -0.603108,0 -49.564226,9.96893 -62.099517,12.64403 -5.453322,1.16377 -9.915131,2.32642 -9.915131,2.58368 0,0.59945 17.021595,30.84134 45.821427,81.4099 29.724681,52.19248 28.637431,50.33215 29.129051,49.84052 0.23434,-0.23433 0.1832,-21.1592 -0.11365,-46.4997 z m 165.143514,4.33992 c -0.4272,-45.86868 -1.23637,-90.30354 -1.80651,-99.20357 l -0.37014,-5.7779 -1.69278,2.70561 c -3.76089,6.0111 -30.45953,54.81667 -35.8412,65.51833 l -2.09192,4.15984 1.43186,2.91948 c 1.71154,3.48978 18.38046,33.17277 30.23329,53.83761 9.28622,16.19009 9.95588,17.31657 10.29423,17.31657 0.12621,0 0.0556,-18.66419 -0.15683,-41.47597 z m 15.17027,25.8352 c 14.81315,-27.07368 30.85205,-57.02036 30.85205,-57.60473 0,-0.32257 -2.05022,-4.27239 -4.55605,-8.77736 -8.76427,-15.75643 -21.89933,-39.01227 -28.60429,-50.64439 -6.23831,-10.82254 -6.78971,-11.60086 -7.12345,-10.05478 -0.59275,2.74593 -0.52609,96.01702 0.0852,119.1967 0.50228,19.04671 0.74446,22.95905 1.38074,22.30564 0.0947,-0.0972 3.67931,-6.58673 7.96582,-14.42108 z m 148.16286,-39.38123 c -0.82255,-67.92796 -1.2501,-91.33092 -1.66853,-91.33092 -0.74778,0 -26.01439,46.82473 -34.12263,63.23694 l -4.54015,9.18989 2.51281,4.98326 c 2.43879,4.83643 10.1974,18.81507 28.6167,51.55849 l 8.91747,15.8523 0.41611,-4.12172 c 0.22887,-2.26695 0.16957,-24.48265 -0.13178,-49.36824 z m 26.52238,16.89312 c 36.81606,-68.50177 49.94551,-93.38223 50.78363,-96.23559 0.31269,-1.06452 -0.31081,-1.27633 -9.5808,-3.25464 -15.07466,-3.21711 -56.25932,-11.44867 -59.29641,-11.85155 -2.67562,-0.35494 -2.68485,-0.35054 -3.0451,1.45068 -0.5509,2.75453 -0.40327,89.29591 0.18962,111.15245 0.6164,22.72298 1.15791,34.07626 1.62503,34.07003 0.18574,-0.002 8.88155,-15.9016 19.32403,-35.33138 z m -251.00407,-12.37402 12.7963,-23.41084 -3.75332,-6.7535 c -6.80268,-12.2403 -22.85438,-40.21626 -24.70784,-43.06242 l -1.81882,-2.793 0.32358,14.50492 c 0.17797,7.9777 0.46227,30.60096 0.63178,50.2739 0.16951,19.67294 0.43969,36.62741 0.60041,37.6766 l 0.29223,1.90761 1.41969,-2.46621 c 0.78083,-1.35642 7.17802,-13.00109 14.21599,-25.87706 z m -22.85019,-63.40562 -0.41178,-9.17122 -5.93733,10.84701 c -9.1103,16.64378 -20.59612,38.75771 -20.59612,39.65423 0,1.02046 7.14202,14.33049 18.3422,34.18292 l 8.74985,15.50922 0.13248,-40.92547 c 0.0729,-22.50901 -0.0528,-45.05252 -0.2793,-50.09669 z m 181.26205,74.52729 c 4.60675,-8.60242 10.56715,-19.85488 13.24533,-25.00545 l 4.86941,-9.36469 -3.74113,-7.11398 c -4.28697,-8.15194 -19.10369,-34.80619 -22.58559,-40.62992 l -2.33782,-3.91019 0.33021,41.31805 c 0.34549,43.22958 0.78133,61.53161 1.44758,60.78865 0.21785,-0.24294 4.16525,-7.48004 8.77201,-16.08247 z m -16.18581,-37.1854 -0.14273,-48.73619 -13.79177,25.58255 -13.79177,25.58255 2.54251,5.08908 c 1.39838,2.79898 7.46838,13.99201 13.48887,24.87338 10.25103,18.5276 10.97466,19.67508 11.39198,18.06457 0.2451,-0.94586 0.3814,-23.65103 0.30291,-50.45594 z m -193.26885,-7.08356 c 7.51756,-12.70221 24.70854,-45.65079 24.70854,-47.35693 0,-0.77811 -10.52727,-3.25573 -30.72295,-7.23075 -18.18559,-3.5794 -32.431804,-6.0338 -32.812514,-5.65309 -1.08616,1.08617 34.716134,64.01131 36.420294,64.01131 0.0963,0 1.17928,-1.69674 2.40663,-3.77054 z m 72.09433,-5.86529 c 16.15982,-29.29064 29.99332,-55.61398 29.49058,-56.11673 -0.58241,-0.5824 -61.27701,11.95485 -62.98481,13.01033 -0.53785,0.33241 5.00314,11.35355 12.36573,24.59574 4.71469,8.47972 15.785,27.58789 15.98303,27.58789 0.0756,0 2.39109,-4.08475 5.14547,-9.07723 z m 166.38199,-4.04984 c 9.30278,-16.49714 26.38672,-49.10461 28.13123,-53.69302 0.59835,-1.57378 3.81529,-2.10408 -27.67632,4.56232 -32.46895,6.87329 -37.14683,7.99561 -37.14683,8.91232 0,1.79356 11.85832,23.51076 24.17151,44.26744 l 5.05292,8.51785 1.21379,-1.81466 c 0.66758,-0.99807 3.48175,-5.83658 6.2537,-10.75225 z m -72.59319,6.48981 c 10.12228,-17.86674 25.06505,-46.28008 24.58923,-46.75589 -0.50182,-0.50182 -65.89162,-13.14932 -66.23078,-12.81015 -0.29542,0.29542 1.77528,4.13457 12.20717,22.63259 18.79025,33.31922 24.53879,42.73524 25.83203,42.31251 0.37454,-0.12244 1.9956,-2.54302 3.60235,-5.37906 z M 44.771763,271.3154 c 17.26712,-3.70017 33.128559,-7.12193 35.247649,-7.60391 L 83.872298,262.83518 83.4363,215.55674 C 83.196505,189.55359 82.846593,163.5222 82.658725,157.7092 l -0.341583,-10.5691 -4.97004,9.1726 c -14.525075,26.80716 -39.026579,72.15406 -49.474241,91.56594 -6.531477,12.13556 -12.870212,23.88709 -14.086077,26.1145 -1.737487,3.183 -2.017931,4.04984 -1.310223,4.04984 0.495242,0 15.028083,-3.02741 32.295202,-6.72758 z m 118.262937,5.58096 c 0,-1.04685 -9.64444,-17.31794 -14.6734,-24.75543 l -2.21699,-3.27879 -2.34834,0.32187 c -2.14727,0.29432 -31.72464,6.39919 -45.419104,9.37466 -6.09763,1.32487 -6.71725,1.86526 -4.30991,3.75887 1.8274,1.43744 7.972384,2.8787 38.244794,8.97003 13.67171,2.75098 25.86314,5.24542 27.09205,5.54319 3.05102,0.73927 3.6309,0.74975 3.6309,0.0656 z m 38.82262,-5.89899 c 29.38483,-6.21153 43.21683,-9.76789 43.70669,-11.23748 0.11648,-0.34943 -1.86505,-1.08227 -4.71563,-1.74401 -7.54758,-1.75211 -46.48404,-9.57864 -47.65311,-9.57864 -0.68075,0 -1.89058,1.38373 -3.54089,4.04984 -3.50303,5.65921 -12.09611,21.76401 -12.09611,22.67002 0,0.96824 0.21153,0.93202 24.29905,-4.15973 z m 125.40547,3.31736 c 0,-0.41158 -7.42401,-14.2743 -11.83279,-22.09519 -2.36153,-4.18917 -2.94122,-4.86436 -3.98406,-4.64042 -0.67124,0.14414 -4.61391,0.92141 -8.76151,1.72725 -10.58579,2.05673 -42.09705,9.07665 -43.97042,9.79551 l -1.55539,0.59685 1.50642,0.79541 c 2.57323,1.35869 14.33346,4.06246 38.7127,8.90037 12.90364,2.56065 24.08958,4.76575 24.85765,4.90023 2.33303,0.40848 5.0274,0.41919 5.0274,0.02 z m 38.54332,-5.24309 c 23.36427,-4.98724 40.30331,-8.88546 42.97583,-9.89012 1.19009,-0.44738 0.80585,-0.65854 -3.07229,-1.68839 -7.82469,-2.07787 -31.3071,-6.83908 -48.93942,-9.92279 -2.48809,-0.43514 -2.2385,-0.78429 -10.40268,14.55257 -6.68173,12.552 -6.68775,12.56586 -5.32356,12.25162 0.56191,-0.12944 11.70487,-2.51574 24.76212,-5.30289 z m 121.21763,-3.44137 c -14.1389,-25.81559 -69.11868,-121.42788 -69.56679,-120.97976 -0.37785,0.37784 0.49652,113.25749 0.88212,113.88141 0.50379,0.81515 71.6699,15.19123 72.53054,14.65171 0.11915,-0.0747 -1.61149,-3.4737 -3.84587,-7.55336 z m -306.56278,-8.4148 c 2.78547,-5.15692 4.93541,-9.50531 4.77765,-9.66308 -0.62281,-0.62281 -12.1671,-3.19364 -12.56383,-2.79788 -0.23276,0.23219 -0.49093,6.62308 -0.57371,14.20197 l -0.1505,13.77981 1.72295,-3.07229 c 0.94761,-1.68976 4.00197,-7.2916 6.78744,-12.44853 z m -15.19187,-0.11995 v -12.00988 h -1.38062 c -2.5835,0 -9.90076,1.86953 -10.18159,2.60135 -0.23805,0.62035 10.79547,21.41841 11.36262,21.41841 0.10978,0 0.19959,-5.40445 0.19959,-12.00988 z m 165.0944,-13.56416 c -0.31676,-0.31676 -6.4107,0.77831 -9.16302,1.64658 -1.67076,0.52707 -1.83871,0.76132 -1.55676,2.17112 0.17384,0.86917 2.65051,5.74636 5.50372,10.8382 l 5.18765,9.25789 0.15099,-11.82011 c 0.0831,-6.50105 0.0279,-11.94321 -0.12258,-12.09368 z m 12.94004,12.89227 c 3.13866,-5.74472 5.63609,-10.51551 5.54984,-10.60176 -0.31672,-0.31672 -9.07014,-1.85323 -10.55826,-1.85333 l -1.53614,-9e-5 v 11.45127 c 0,6.29821 0.18852,11.45073 0.41895,11.45007 0.23042,-5.6e-4 2.98694,-4.70144 6.12561,-10.44616 z m -224.67745,-7.74875 c 11.36749,-2.26778 21.60874,-4.39138 22.75833,-4.71913 l 2.09017,-0.59589 -1.74886,-3.46625 c -4.28374,-8.49033 -19.5526,-34.66775 -20.598,-35.31384 -0.26512,-0.16385 -1.47173,1.40469 -2.68135,3.48566 -2.42088,4.16476 -16.50216,29.887 -21.586214,39.43146 l -3.21845,6.04213 2.1581,-0.37045 c 1.18696,-0.20375 11.458784,-2.22591 22.826274,-4.49369 z m 125.76887,3.411 c -1.24215,-3.23699 -27.15567,-47.77796 -27.79677,-47.77796 -1.31926,0 -21.86455,37.47113 -21.01247,38.32321 0.72146,0.72146 44.46842,10.13471 47.52805,10.22684 1.18466,0.0357 1.51481,-0.16328 1.28119,-0.77209 z m 23.15025,-0.8169 c 26.96619,-5.48576 41.28382,-8.86819 41.28382,-9.75299 0,-1.12824 -15.87602,-28.36558 -20.8309,-35.73807 l -2.20312,-3.27809 -2.23647,3.83669 c -6.9082,11.85112 -24.44482,45.05508 -24.44482,46.284 0,0.3877 -0.55671,0.47694 8.43149,-1.35154 z m 139.53778,-3.80929 c -12.50251,-22.81738 -26.31187,-46.53349 -26.9747,-46.32617 -1.09384,0.34214 -22.01404,39.21944 -21.42258,39.81091 1.23864,1.23863 44.12107,10.65193 49.19411,10.7988 l 1.57527,0.0456 z M 98.334686,232.9335 c 4.508444,-8.21695 10.594034,-19.59306 13.523544,-25.28023 l 5.32637,-10.34034 -3.66645,-6.95241 c -7.67257,-14.54889 -24.659874,-43.89173 -25.134984,-43.41663 -0.13384,0.13385 0.0164,12.65562 0.3338,27.82615 0.31744,15.17053 0.5784,37.82609 0.57991,50.34569 0.002,12.5196 0.19128,22.76173 0.4217,22.76029 0.23042,-0.002 4.10767,-6.72558 8.61611,-14.94252 z M 248.53172,197.88403 c -0.75658,-44.03729 -1.07277,-52.02732 -2.00611,-50.69442 -1.1426,1.63175 -20.06832,36.42942 -23.11266,42.49596 -1.56341,3.11546 -2.84256,5.97421 -2.84256,6.35277 0,1.23207 20.52019,39.19455 26.59258,49.19643 l 1.61666,2.66282 0.17835,-7.41091 c 0.0981,-4.076 -0.0937,-23.24719 -0.42626,-42.60265 z m 20.0741,23.74046 c 7.12512,-13.05725 13.28267,-24.25752 13.68344,-24.88948 0.6604,-1.04137 -0.59321,-3.46258 -13.37935,-25.84093 l -14.10802,-24.69189 -0.35292,2.93836 c -0.46145,3.84181 -0.47014,95.01501 -0.009,96.21625 0.1944,0.50663 0.54647,0.71572 0.78237,0.46464 0.23588,-0.25107 6.25852,-11.1397 13.38364,-24.19695 z m 143.2979,-20.80781 c -0.23691,-24.0407 -0.58817,-46.83794 -0.78057,-50.66053 l -0.34982,-6.95017 -4.2798,7.78806 c -6.17129,11.23006 -16.64486,31.53875 -19.68081,38.16192 l -2.60873,5.69114 4.29959,7.94236 c 3.84627,7.10499 14.26463,25.7306 20.92134,37.40251 1.35608,2.37777 2.56549,4.32588 2.68758,4.32914 0.12208,0.003 0.0281,-19.66373 -0.20878,-43.70443 z m -220.5402,35.75033 c 3.95874,-6.693 16.53868,-29.72835 19.21454,-35.18408 l 1.84558,-3.76289 -4.27239,-8.35351 c -5.46082,-10.67714 -18.75073,-34.51648 -29.52401,-52.95995 l -8.40672,-14.392 0.33029,26.25415 c 0.49706,39.51011 1.42984,88.10331 1.71717,89.45602 0.21764,1.0246 1.24238,1.43857 7.10146,2.86878 3.76591,0.91926 7.2432,1.70013 7.72731,1.73525 0.55441,0.0402 2.13367,-2.05535 4.26677,-5.66177 z m -32.36387,3.92439 6.37616,-1.24265 -0.3317,-53.08109 c -0.18243,-29.19461 -0.52066,-55.21774 -0.7516,-57.82919 l -0.41991,-4.74809 -3.70095,6.70318 c -5.64412,10.22272 -26.04916,48.15787 -31.19225,57.98975 l -4.56426,8.72534 6.27217,11.33037 c 13.49892,24.38516 19.16878,33.39503 21.01529,33.39503 0.50649,0 3.79017,-0.55919 7.29705,-1.24265 z m 164.58723,-1.00023 c 3.35476,-0.60979 6.30835,-1.10871 6.56354,-1.10871 0.59203,0 0.5576,-26.09816 -0.0884,-67.03187 -0.62188,-39.40283 -1.02055,-48.99509 -1.97923,-47.62097 -0.70365,1.00858 -20.89305,38.1167 -32.29136,59.35154 l -6.44659,12.00988 2.5793,4.74809 c 3.98251,7.33117 17.94034,31.75193 20.11405,35.19173 2.2713,3.59426 4.0056,5.58941 4.84827,5.57751 0.33049,-0.004 3.34569,-0.50741 6.70046,-1.1172 z m 27.80938,0.14813 c 3.59561,-4.15732 24.45672,-43.07289 24.46228,-45.63341 10e-4,-0.59684 -3.56243,-7.5095 -7.91939,-15.36147 -11.10195,-20.0076 -31.14977,-55.39114 -32.14232,-56.72984 -0.73444,-0.99056 -0.79006,1.95386 -0.49069,25.97485 0.39428,31.63733 1.52743,90.13274 1.75106,90.39336 0.20937,0.244 10.85914,2.21563 12.32332,2.28145 0.64365,0.0289 1.55073,-0.38728 2.01574,-0.92494 z"
     id="path1179" />
</svg>
